<?xml version="1.0" encoding="UTF-8" standalone="no"?>
<!DOCTYPE svg PUBLIC "-//W3C//DTD SVG 1.1//EN"
 "http://www.w3.org/Graphics/SVG/1.1/DTD/svg11.dtd">
<!-- Generated by graphviz version 2.28.0 (20111027.1853)
 -->
<!-- Title: world Pages: 1 -->
<svg width="1136pt" height="788pt"
 viewBox="0.00 0.00 1136.00 788.00" xmlns="http://www.w3.org/2000/svg" xmlns:xlink="http://www.w3.org/1999/xlink">
<g id="graph1" class="graph" transform="scale(1 1) rotate(0) translate(36 752)">
<title>world</title>
<polygon fill="#2e3e56" stroke="#2e3e56" points="-36,37 -36,-752 1101,-752 1101,37 -36,37"/>
<!-- S35 -->
<g id="node1" class="node"><title>S35</title>
<a xlink:title="Go S35">
<ellipse fill="#8eabd9" stroke="#8eabd9" stroke-width="3" cx="521" cy="-694" rx="21.25" ry="21.5"/>
</a>
</g>
<!-- 43 -->
<g id="node7" class="node"><title>43</title>
<ellipse fill="#a5cf80" stroke="#a5cf80" stroke-width="3" cx="553" cy="-614" rx="21.25" ry="21.5"/>
</g>
<!-- S35&#45;&gt;43 -->
<g id="edge14" class="edge"><title>S35&#45;&gt;43</title>
<path fill="none" stroke="#fcfcfc" stroke-width="2" d="M528.91,-673.719C532.669,-664.557 537.236,-653.424 541.379,-643.326"/>
<polygon fill="#fcfcfc" stroke="#fcfcfc" points="544.623,-644.639 545.181,-634.059 538.147,-641.982 544.623,-644.639"/>
</g>
<!-- 36 -->
<g id="node27" class="node"><title>36</title>
<ellipse fill="#edad56" stroke="#edad56" stroke-width="3" cx="489" cy="-614" rx="21.25" ry="21.5"/>
</g>
<!-- S35&#45;&gt;36 -->
<g id="edge16" class="edge"><title>S35&#45;&gt;36</title>
<path fill="none" stroke="#fcfcfc" stroke-width="2" d="M513.09,-673.719C509.331,-664.557 504.764,-653.424 500.621,-643.326"/>
<polygon fill="#fcfcfc" stroke="#fcfcfc" points="503.853,-641.982 496.819,-634.059 497.377,-644.639 503.853,-641.982"/>
</g>
<!-- 23 -->
<g id="node2" class="node"><title>23</title>
<a xlink:title="Go 23">
<polygon fill="#edad56" stroke="#edad56" stroke-width="3" points="366.25,-187.562 345,-200 323.75,-187.562 323.77,-167.438 366.23,-167.438 366.25,-187.562"/>
</a>
</g>
<!-- T1 -->
<g id="node3" class="node"><title>T1</title>
<a xlink:title="Go T1">
<polygon fill="#9362a8" stroke="#9362a8" stroke-width="3" points="228.25,-120 185.75,-120 185.75,-84 228.25,-84 228.25,-120"/>
</a>
</g>
<!-- 23&#45;&gt;T1 -->
<g id="edge130" class="edge"><title>23&#45;&gt;T1</title>
<path fill="none" stroke="#fcfcfc" stroke-width="2" d="M323.74,-168.983C300.61,-155.91 263.442,-134.902 237.269,-120.109"/>
<polygon fill="#fcfcfc" stroke="#fcfcfc" points="238.939,-117.032 228.512,-115.159 235.495,-123.126 238.939,-117.032"/>
</g>
<!-- T24 -->
<g id="node40" class="node"><title>T24</title>
<ellipse fill="#edad56" stroke="#edad56" stroke-width="3" cx="879" cy="-102" rx="21.25" ry="21.5"/>
</g>
<!-- 23&#45;&gt;T24 -->
<g id="edge128" class="edge"><title>23&#45;&gt;T24</title>
<path fill="none" stroke="#fcfcfc" stroke-width="2" d="M361.292,-167.409C365.525,-164.512 370.239,-161.79 375,-160 513.095,-108.069 558.427,-140.839 705,-124 754.995,-118.256 813.017,-111.169 847.826,-106.871"/>
<polygon fill="#fcfcfc" stroke="#fcfcfc" points="848.355,-110.333 857.849,-105.632 847.495,-103.386 848.355,-110.333"/>
</g>
<!-- T99 -->
<g id="node4" class="node"><title>T99</title>
<a xlink:title="Go T1">
<polygon fill="#9362a8" stroke="#9362a8" stroke-width="3" points="1063.25,-712 1020.75,-712 1020.75,-676 1063.25,-676 1063.25,-712"/>
</a>
</g>
<!-- P4 -->
<g id="node5" class="node"><title>P4</title>
<a xlink:title="Go P4">
<ellipse fill="#f2688d" stroke="#f2688d" stroke-width="3" cx="675" cy="-102" rx="21.25" ry="18"/>
</a>
</g>
<!-- T30 -->
<g id="node6" class="node"><title>T30</title>
<a xlink:title="Go T30">
<ellipse fill="#ea555b" stroke="#ea555b" stroke-width="3" cx="675" cy="-182" rx="21.25" ry="21.5"/>
</a>
</g>
<!-- T30&#45;&gt;P4 -->
<g id="edge2" class="edge"><title>T30&#45;&gt;P4</title>
<path fill="none" stroke="#fcfcfc" stroke-width="2" d="M675,-160.097C675,-150.885 675,-139.941 675,-130.111"/>
<polygon fill="#fcfcfc" stroke="#fcfcfc" points="678.5,-130.016 675,-120.017 671.5,-130.017 678.5,-130.016"/>
</g>
<!-- 40 -->
<g id="node8" class="node"><title>40</title>
<ellipse fill="#a5cf80" stroke="#a5cf80" stroke-width="3" cx="553" cy="-518" rx="37.3088" ry="37.743"/>
<text text-anchor="middle" x="553" y="-512.4" font-family="Times,serif" font-size="14.00">Another</text>
</g>
<!-- 43&#45;&gt;40 -->
<g id="edge82" class="edge"><title>43&#45;&gt;40</title>
<path fill="none" stroke="#fcfcfc" stroke-width="2" d="M553,-592.138C553,-584.436 553,-575.36 553,-566.271"/>
<polygon fill="#fcfcfc" stroke="#fcfcfc" points="556.5,-566.075 553,-556.075 549.5,-566.075 556.5,-566.075"/>
</g>
<!-- 38 -->
<g id="node75" class="node"><title>38</title>
<ellipse fill="#edad56" stroke="#edad56" stroke-width="3" cx="630" cy="-518" rx="21.25" ry="21.5"/>
</g>
<!-- 43&#45;&gt;38 -->
<g id="edge80" class="edge"><title>43&#45;&gt;38</title>
<path fill="none" stroke="#fcfcfc" stroke-width="2" d="M566.412,-596.626C578.558,-581.8 596.603,-559.77 610.371,-542.963"/>
<polygon fill="#fcfcfc" stroke="#fcfcfc" points="613.112,-545.14 616.741,-535.186 607.697,-540.704 613.112,-545.14"/>
</g>
<!-- 19 -->
<g id="node10" class="node"><title>19</title>
<ellipse fill="#ab6d16" stroke="#ab6d16" stroke-width="3" cx="276" cy="-422" rx="21.25" ry="21.5"/>
</g>
<!-- 40&#45;&gt;19 -->
<g id="edge96" class="edge"><title>40&#45;&gt;19</title>
<path fill="none" stroke="#fcfcfc" stroke-width="2" d="M524.359,-493.29C517.098,-488.242 509.06,-483.413 501,-480 419.843,-445.64 387.289,-478.047 306,-444 304.197,-443.245 302.394,-442.368 300.617,-441.41"/>
<polygon fill="#fcfcfc" stroke="#fcfcfc" points="302.419,-438.409 292.074,-436.125 298.737,-444.362 302.419,-438.409"/>
</g>
<!-- 28 -->
<g id="node9" class="node"><title>28</title>
<ellipse fill="#ab6d16" stroke="#ab6d16" stroke-width="3" cx="436" cy="-342" rx="21.25" ry="21.5"/>
</g>
<!-- 29 -->
<g id="node67" class="node"><title>29</title>
<ellipse fill="#edad56" stroke="#edad56" stroke-width="3" cx="604" cy="-262" rx="21.25" ry="21.5"/>
</g>
<!-- 28&#45;&gt;29 -->
<g id="edge114" class="edge"><title>28&#45;&gt;29</title>
<path fill="none" stroke="#fcfcfc" stroke-width="2" d="M453.71,-330.1C459.463,-326.713 465.929,-323.067 472,-320 506.572,-302.532 547.732,-285.297 574.791,-274.431"/>
<polygon fill="#fcfcfc" stroke="#fcfcfc" points="576.434,-277.544 584.428,-270.592 573.843,-271.042 576.434,-277.544"/>
</g>
<!-- 19&#45;&gt;28 -->
<g id="edge101" class="edge"><title>19&#45;&gt;28</title>
<path fill="none" stroke="#fcfcfc" stroke-width="2" d="M292.644,-408.199C296.866,-405.279 301.488,-402.348 306,-400 347.533,-378.39 363.302,-385.291 405,-364 406.78,-363.091 408.58,-362.097 410.369,-361.053"/>
<polygon fill="#fcfcfc" stroke="#fcfcfc" points="412.492,-363.852 419.084,-355.557 408.758,-357.931 412.492,-363.852"/>
</g>
<!-- 21 -->
<g id="node91" class="node"><title>21</title>
<ellipse fill="#edad56" stroke="#edad56" stroke-width="3" cx="314" cy="-342" rx="21.25" ry="21.5"/>
</g>
<!-- 19&#45;&gt;21 -->
<g id="edge102" class="edge"><title>19&#45;&gt;21</title>
<path fill="none" stroke="#fcfcfc" stroke-width="2" d="M285.005,-402.515C289.61,-393.064 295.308,-381.367 300.432,-370.85"/>
<polygon fill="#fcfcfc" stroke="#fcfcfc" points="303.694,-372.145 304.927,-361.623 297.401,-369.08 303.694,-372.145"/>
</g>
<!-- 20 -->
<g id="node92" class="node"><title>20</title>
<ellipse fill="#edad56" stroke="#edad56" stroke-width="3" cx="138" cy="-342" rx="21.25" ry="21.5"/>
</g>
<!-- 19&#45;&gt;20 -->
<g id="edge103" class="edge"><title>19&#45;&gt;20</title>
<path fill="none" stroke="#fcfcfc" stroke-width="2" d="M257.675,-410.642C234.064,-397.297 192.811,-373.98 165.448,-358.514"/>
<polygon fill="#fcfcfc" stroke="#fcfcfc" points="166.829,-355.274 156.401,-353.401 163.385,-361.368 166.829,-355.274"/>
</g>
<!-- S8 -->
<g id="node12" class="node"><title>S8</title>
<ellipse fill="#edad56" stroke="#edad56" stroke-width="3" cx="879" cy="-694" rx="21.25" ry="21.5"/>
</g>
<!-- 9 -->
<g id="node14" class="node"><title>9</title>
<ellipse fill="#edad56" stroke="#edad56" stroke-width="3" cx="879" cy="-614" rx="21.25" ry="21.5"/>
</g>
<!-- S8&#45;&gt;9 -->
<g id="edge4" class="edge"><title>S8&#45;&gt;9</title>
<path fill="none" stroke="#fcfcfc" stroke-width="2" d="M879,-672.097C879,-664.077 879,-654.744 879,-645.977"/>
<polygon fill="#fcfcfc" stroke="#fcfcfc" points="882.5,-645.69 879,-635.69 875.5,-645.69 882.5,-645.69"/>
</g>
<!-- 9&#45;&gt;T1 -->
<g id="edge24" class="edge"><title>9&#45;&gt;T1</title>
<path fill="none" stroke="#fcfcfc" stroke-width="2" d="M896.505,-601.743C911.041,-591.507 931.185,-575.11 943,-556 975.205,-503.914 979,-484.238 979,-423 979,-423 979,-423 979,-261 979,-131.212 831.264,-190.038 705,-160 659.62,-149.204 340.916,-116.508 238.565,-106.169"/>
<polygon fill="#fcfcfc" stroke="#fcfcfc" points="238.834,-102.679 228.533,-105.158 238.132,-109.643 238.834,-102.679"/>
</g>
<!-- 42 -->
<g id="node34" class="node"><title>42</title>
<ellipse fill="#edad56" stroke="#edad56" stroke-width="3" cx="791" cy="-518" rx="21.25" ry="21.5"/>
</g>
<!-- 9&#45;&gt;42 -->
<g id="edge22" class="edge"><title>9&#45;&gt;42</title>
<path fill="none" stroke="#fcfcfc" stroke-width="2" d="M864.861,-597.897C850.705,-582.776 828.74,-559.313 812.439,-541.9"/>
<polygon fill="#fcfcfc" stroke="#fcfcfc" points="814.785,-539.286 805.396,-534.378 809.675,-544.07 814.785,-539.286"/>
</g>
<!-- S24 -->
<g id="node15" class="node"><title>S24</title>
<ellipse fill="#edad56" stroke="#edad56" stroke-width="3" cx="981" cy="-694" rx="21.25" ry="21.5"/>
</g>
<!-- 25 -->
<g id="node17" class="node"><title>25</title>
<ellipse fill="#edad56" stroke="#edad56" stroke-width="3" cx="764" cy="-614" rx="21.25" ry="21.5"/>
</g>
<!-- S24&#45;&gt;25 -->
<g id="edge6" class="edge"><title>S24&#45;&gt;25</title>
<path fill="none" stroke="#fcfcfc" stroke-width="2" d="M960.974,-685.802C922.541,-671.987 838.283,-641.701 793.439,-625.582"/>
<polygon fill="#fcfcfc" stroke="#fcfcfc" points="794.572,-622.27 783.977,-622.181 792.204,-628.857 794.572,-622.27"/>
</g>
<!-- 27 -->
<g id="node19" class="node"><title>27</title>
<ellipse fill="#edad56" stroke="#edad56" stroke-width="3" cx="1029" cy="-422" rx="21.25" ry="21.5"/>
</g>
<!-- S24&#45;&gt;27 -->
<g id="edge8" class="edge"><title>S24&#45;&gt;27</title>
<path fill="none" stroke="#fcfcfc" stroke-width="2" d="M984.608,-672.706C992.965,-625.699 1013.69,-509.127 1023.58,-453.492"/>
<polygon fill="#fcfcfc" stroke="#fcfcfc" points="1027.05,-453.988 1025.35,-443.529 1020.15,-452.762 1027.05,-453.988"/>
</g>
<!-- 25&#45;&gt;T1 -->
<!-- weaklink -->
<g id="edge26" class="edge"><title>25&#45;&gt;T1</title>
<path fill="none" stroke="#445773" stroke-width="2" d="M781.367,-601.547C795.02,-591.414 813.02,-575.265 821,-556 833.926,-524.793 842.065,-506.405 821,-480 776.084,-423.699 726.236,-478.472 663,-444 638.44,-430.612 643.3,-411.93 618,-400 550.278,-368.067 341.134,-411.185 283,-364 246.272,-334.189 220.462,-191.024 210.993,-130.311"/>
<polygon fill="#445773" stroke="#445773" points="214.435,-129.666 209.465,-120.31 207.515,-130.723 214.435,-129.666"/>
</g>
<!-- 26 -->
<g id="node38" class="node"><title>26</title>
<ellipse fill="#edad56" stroke="#edad56" stroke-width="3" cx="691" cy="-518" rx="21.25" ry="21.5"/>
</g>
<!-- 25&#45;&gt;26 -->
<g id="edge28" class="edge"><title>25&#45;&gt;26</title>
<path fill="none" stroke="#fcfcfc" stroke-width="2" d="M751.284,-596.626C739.944,-582.024 723.179,-560.435 710.205,-543.729"/>
<polygon fill="#fcfcfc" stroke="#fcfcfc" points="712.713,-541.253 703.815,-535.501 707.184,-545.546 712.713,-541.253"/>
</g>
<!-- 27&#45;&gt;T24 -->
<g id="edge30" class="edge"><title>27&#45;&gt;T24</title>
<path fill="none" stroke="#fcfcfc" stroke-width="2" d="M1032.15,-400.381C1038.21,-353.003 1046.58,-234.716 993,-160 973.192,-132.378 936.11,-117.382 909.616,-109.805"/>
<polygon fill="#fcfcfc" stroke="#fcfcfc" points="910.254,-106.353 899.69,-107.167 908.456,-113.118 910.254,-106.353"/>
</g>
<!-- S1 -->
<g id="node20" class="node"><title>S1</title>
<ellipse fill="#edad56" stroke="#edad56" stroke-width="3" cx="207" cy="-694" rx="21.25" ry="21.5"/>
</g>
<!-- 2 -->
<g id="node22" class="node"><title>2</title>
<ellipse fill="#edad56" stroke="#edad56" stroke-width="3" cx="176" cy="-614" rx="21.25" ry="21.5"/>
</g>
<!-- S1&#45;&gt;2 -->
<g id="edge10" class="edge"><title>S1&#45;&gt;2</title>
<path fill="none" stroke="#fcfcfc" stroke-width="2" d="M199.337,-673.719C195.76,-664.719 191.427,-653.818 187.471,-643.863"/>
<polygon fill="#fcfcfc" stroke="#fcfcfc" points="190.628,-642.33 183.682,-634.329 184.123,-644.915 190.628,-642.33"/>
</g>
<!-- 10 -->
<g id="node24" class="node"><title>10</title>
<ellipse fill="#edad56" stroke="#edad56" stroke-width="3" cx="237" cy="-614" rx="21.25" ry="21.5"/>
</g>
<!-- S1&#45;&gt;10 -->
<g id="edge12" class="edge"><title>S1&#45;&gt;10</title>
<path fill="none" stroke="#fcfcfc" stroke-width="2" d="M214.416,-673.719C217.877,-664.719 222.07,-653.818 225.899,-643.863"/>
<polygon fill="#fcfcfc" stroke="#fcfcfc" points="229.242,-644.919 229.566,-634.329 222.709,-642.406 229.242,-644.919"/>
</g>
<!-- 2&#45;&gt;T1 -->
<g id="edge33" class="edge"><title>2&#45;&gt;T1</title>
<path fill="none" stroke="#fcfcfc" stroke-width="2" d="M154.952,-609.224C126.403,-603.033 75.5816,-588.056 46,-556 3.58206,-510.035 0,-485.547 0,-423 0,-423 0,-423 0,-261 0,-173.569 118.128,-128.068 175.91,-111.041"/>
<polygon fill="#fcfcfc" stroke="#fcfcfc" points="176.965,-114.38 185.627,-108.279 175.051,-107.646 176.965,-114.38"/>
</g>
<!-- 3 -->
<g id="node43" class="node"><title>3</title>
<ellipse fill="#edad56" stroke="#edad56" stroke-width="3" cx="337" cy="-518" rx="21.25" ry="21.5"/>
</g>
<!-- 2&#45;&gt;3 -->
<g id="edge34" class="edge"><title>2&#45;&gt;3</title>
<path fill="none" stroke="#fcfcfc" stroke-width="2" d="M192.667,-600.242C196.888,-597.32 201.504,-594.378 206,-592 245.914,-570.891 263.248,-580.769 301,-556 306.606,-552.322 312.01,-547.633 316.851,-542.84"/>
<polygon fill="#fcfcfc" stroke="#fcfcfc" points="319.609,-545.017 323.944,-535.35 314.527,-540.204 319.609,-545.017"/>
</g>
<!-- 16 -->
<g id="node44" class="node"><title>16</title>
<ellipse fill="#edad56" stroke="#edad56" stroke-width="3" cx="50" cy="-422" rx="21.25" ry="21.5"/>
</g>
<!-- 2&#45;&gt;16 -->
<g id="edge35" class="edge"><title>2&#45;&gt;16</title>
<path fill="none" stroke="#fcfcfc" stroke-width="2" d="M155.566,-607.394C131.989,-599.808 93.9159,-583.905 74,-556 52.6072,-526.026 48.4246,-482.814 48.3906,-453.863"/>
<polygon fill="#fcfcfc" stroke="#fcfcfc" points="51.8955,-453.576 48.5535,-443.522 44.8963,-453.466 51.8955,-453.576"/>
</g>
<!-- 17 -->
<g id="node45" class="node"><title>17</title>
<ellipse fill="#edad56" stroke="#edad56" stroke-width="3" cx="176" cy="-518" rx="21.25" ry="21.5"/>
</g>
<!-- 2&#45;&gt;17 -->
<g id="edge36" class="edge"><title>2&#45;&gt;17</title>
<path fill="none" stroke="#fcfcfc" stroke-width="2" d="M176,-592.138C176,-579.725 176,-563.745 176,-549.89"/>
<polygon fill="#fcfcfc" stroke="#fcfcfc" points="179.5,-549.803 176,-539.803 172.5,-549.803 179.5,-549.803"/>
</g>
<!-- 18 -->
<g id="node46" class="node"><title>18</title>
<ellipse fill="#edad56" stroke="#edad56" stroke-width="3" cx="337" cy="-422" rx="21.25" ry="21.5"/>
</g>
<!-- 2&#45;&gt;18 -->
<g id="edge37" class="edge"><title>2&#45;&gt;18</title>
<path fill="none" stroke="#fcfcfc" stroke-width="2" d="M192.978,-600.774C197.19,-597.836 201.723,-594.753 206,-592 232.47,-574.961 245.407,-578.907 267,-556 293.042,-528.374 288.263,-513.567 306,-480 311.171,-470.215 316.939,-459.544 322.084,-450.11"/>
<polygon fill="#fcfcfc" stroke="#fcfcfc" points="325.248,-451.619 326.976,-441.166 319.106,-448.26 325.248,-451.619"/>
</g>
<!-- 10&#45;&gt;T1 -->
<g id="edge40" class="edge"><title>10&#45;&gt;T1</title>
<path fill="none" stroke="#fcfcfc" stroke-width="2" d="M219.747,-601.034C215.303,-598.03 210.504,-594.851 206,-592 179.4,-575.164 160.61,-583.338 145,-556 128.251,-526.667 141.699,-513.616 145,-480 150.136,-427.692 159.003,-415.783 168,-364 182.771,-278.989 196.916,-177.803 203.362,-130.249"/>
<polygon fill="#fcfcfc" stroke="#fcfcfc" points="206.856,-130.524 204.725,-120.146 199.919,-129.588 206.856,-130.524"/>
</g>
<!-- 11 -->
<g id="node49" class="node"><title>11</title>
<ellipse fill="#edad56" stroke="#edad56" stroke-width="3" cx="437" cy="-518" rx="21.25" ry="21.5"/>
</g>
<!-- 10&#45;&gt;11 -->
<g id="edge41" class="edge"><title>10&#45;&gt;11</title>
<path fill="none" stroke="#fcfcfc" stroke-width="2" d="M257.783,-609.02C290.307,-602.108 354.337,-585.699 401,-556 406.657,-552.4 412.081,-547.744 416.927,-542.957"/>
<polygon fill="#fcfcfc" stroke="#fcfcfc" points="419.689,-545.131 424.015,-535.459 414.602,-540.322 419.689,-545.131"/>
</g>
<!-- 14 -->
<g id="node50" class="node"><title>14</title>
<ellipse fill="#edad56" stroke="#edad56" stroke-width="3" cx="111" cy="-422" rx="21.25" ry="21.5"/>
</g>
<!-- 10&#45;&gt;14 -->
<g id="edge42" class="edge"><title>10&#45;&gt;14</title>
<path fill="none" stroke="#fcfcfc" stroke-width="2" d="M220.055,-600.499C215.606,-597.504 210.727,-594.464 206,-592 166.331,-571.319 137.492,-592.763 112,-556 91.0239,-525.749 95.7854,-481.597 102.363,-452.589"/>
<polygon fill="#fcfcfc" stroke="#fcfcfc" points="105.82,-453.188 104.825,-442.64 99.0254,-451.507 105.82,-453.188"/>
</g>
<!-- 13 -->
<g id="node51" class="node"><title>13</title>
<ellipse fill="#edad56" stroke="#edad56" stroke-width="3" cx="237" cy="-518" rx="21.25" ry="21.5"/>
</g>
<!-- 10&#45;&gt;13 -->
<g id="edge43" class="edge"><title>10&#45;&gt;13</title>
<path fill="none" stroke="#fcfcfc" stroke-width="2" d="M237,-592.138C237,-579.725 237,-563.745 237,-549.89"/>
<polygon fill="#fcfcfc" stroke="#fcfcfc" points="240.5,-549.803 237,-539.803 233.5,-549.803 240.5,-549.803"/>
</g>
<!-- 12 -->
<g id="node52" class="node"><title>12</title>
<ellipse fill="#edad56" stroke="#edad56" stroke-width="3" cx="574" cy="-342" rx="21.25" ry="21.5"/>
</g>
<!-- 10&#45;&gt;12 -->
<g id="edge44" class="edge"><title>10&#45;&gt;12</title>
<path fill="none" stroke="#fcfcfc" stroke-width="2" d="M257.897,-608.487C285.812,-601.517 335.411,-585.721 367,-556 394.651,-529.984 382.917,-510.142 406,-480 438.138,-438.035 452.848,-433.172 494,-400 511.476,-385.913 532.13,-371.243 548.074,-360.314"/>
<polygon fill="#fcfcfc" stroke="#fcfcfc" points="550.096,-363.172 556.397,-354.655 546.16,-357.383 550.096,-363.172"/>
</g>
<!-- 36&#45;&gt;19 -->
<g id="edge84" class="edge"><title>36&#45;&gt;19</title>
<path fill="none" stroke="#fcfcfc" stroke-width="2" d="M492.038,-592.403C495.07,-563.337 495.781,-510.441 467,-480 416.626,-426.721 373.088,-473.587 306,-444 304.211,-443.211 302.419,-442.309 300.651,-441.332"/>
<polygon fill="#fcfcfc" stroke="#fcfcfc" points="302.461,-438.336 292.127,-436.001 298.75,-444.271 302.461,-438.336"/>
</g>
<!-- S30 -->
<g id="node28" class="node"><title>S30</title>
<ellipse fill="#edad56" stroke="#edad56" stroke-width="3" cx="891" cy="-518" rx="21.25" ry="21.5"/>
</g>
<!-- 31 -->
<g id="node30" class="node"><title>31</title>
<ellipse fill="#edad56" stroke="#edad56" stroke-width="3" cx="375" cy="-342" rx="21.25" ry="21.5"/>
</g>
<!-- S30&#45;&gt;31 -->
<g id="edge18" class="edge"><title>S30&#45;&gt;31</title>
<path fill="none" stroke="#fcfcfc" stroke-width="2" d="M878.217,-500.207C871.945,-493.022 863.839,-485.124 855,-480 799.419,-447.777 772.076,-473.495 715,-444 688.105,-430.101 690.638,-412.357 663,-400 557.306,-352.743 512.745,-406.372 405,-364 403.181,-363.285 401.366,-362.438 399.58,-361.502"/>
<polygon fill="#fcfcfc" stroke="#fcfcfc" points="401.373,-358.496 391.014,-356.272 397.725,-364.47 401.373,-358.496"/>
</g>
<!-- 33 -->
<g id="node32" class="node"><title>33</title>
<ellipse fill="#edad56" stroke="#edad56" stroke-width="3" cx="746" cy="-422" rx="21.25" ry="21.5"/>
</g>
<!-- S30&#45;&gt;33 -->
<g id="edge20" class="edge"><title>S30&#45;&gt;33</title>
<path fill="none" stroke="#fcfcfc" stroke-width="2" d="M877.62,-501.112C871.227,-494.11 863.192,-486.105 855,-480 829.83,-461.241 797.626,-445.231 774.765,-434.999"/>
<polygon fill="#fcfcfc" stroke="#fcfcfc" points="776.151,-431.785 765.587,-430.976 773.341,-438.196 776.151,-431.785"/>
</g>
<!-- 31&#45;&gt;T1 -->
<g id="edge46" class="edge"><title>31&#45;&gt;T1</title>
<path fill="none" stroke="#fcfcfc" stroke-width="2" d="M357.747,-329.034C353.303,-326.03 348.504,-322.851 344,-320 317.4,-303.164 302.934,-308.365 283,-284 246.063,-238.854 264.279,-213.038 240,-160 235.167,-149.442 228.976,-138.292 223.264,-128.68"/>
<polygon fill="#fcfcfc" stroke="#fcfcfc" points="226.178,-126.735 217.995,-120.005 220.195,-130.369 226.178,-126.735"/>
</g>
<!-- 32 -->
<g id="node55" class="node"><title>32</title>
<ellipse fill="#edad56" stroke="#edad56" stroke-width="3" cx="375" cy="-262" rx="21.25" ry="21.5"/>
</g>
<!-- 31&#45;&gt;32 -->
<g id="edge48" class="edge"><title>31&#45;&gt;32</title>
<path fill="none" stroke="#fcfcfc" stroke-width="2" d="M375,-320.097C375,-312.077 375,-302.744 375,-293.977"/>
<polygon fill="#fcfcfc" stroke="#fcfcfc" points="378.5,-293.69 375,-283.69 371.5,-293.69 378.5,-293.69"/>
</g>
<!-- 33&#45;&gt;T30 -->
<g id="edge50" class="edge"><title>33&#45;&gt;T30</title>
<path fill="none" stroke="#fcfcfc" stroke-width="2" d="M742.959,-400.652C739.656,-380.092 733.792,-347.518 726,-320 715.162,-281.723 698.475,-238.957 687.166,-211.549"/>
<polygon fill="#fcfcfc" stroke="#fcfcfc" points="690.34,-210.068 683.263,-202.184 683.879,-212.761 690.34,-210.068"/>
</g>
<!-- 34 -->
<g id="node58" class="node"><title>34</title>
<ellipse fill="#edad56" stroke="#edad56" stroke-width="3" cx="635" cy="-342" rx="21.25" ry="21.5"/>
</g>
<!-- 33&#45;&gt;34 -->
<g id="edge52" class="edge"><title>33&#45;&gt;34</title>
<path fill="none" stroke="#fcfcfc" stroke-width="2" d="M728.656,-408.812C710.41,-395.991 681.499,-375.675 660.622,-361.005"/>
<polygon fill="#fcfcfc" stroke="#fcfcfc" points="662.416,-357.988 652.222,-355.102 658.392,-363.715 662.416,-357.988"/>
</g>
<!-- 4 -->
<g id="node60" class="node"><title>4</title>
<ellipse fill="#edad56" stroke="#edad56" stroke-width="3" cx="525" cy="-422" rx="21.25" ry="21.5"/>
</g>
<!-- 42&#45;&gt;4 -->
<g id="edge54" class="edge"><title>42&#45;&gt;4</title>
<path fill="none" stroke="#fcfcfc" stroke-width="2" d="M773.201,-505.861C759.411,-497.665 739.586,-486.809 721,-480 650.93,-454.33 625.779,-472.951 557,-444 554.86,-443.099 552.709,-442.053 550.588,-440.918"/>
<polygon fill="#fcfcfc" stroke="#fcfcfc" points="552.002,-437.685 541.624,-435.549 548.405,-443.691 552.002,-437.685"/>
</g>
<!-- 26&#45;&gt;4 -->
<g id="edge56" class="edge"><title>26&#45;&gt;4</title>
<path fill="none" stroke="#fcfcfc" stroke-width="2" d="M679.651,-499.738C674.373,-492.81 667.583,-485.242 660,-480 620.109,-452.426 600.485,-465.463 557,-444 554.967,-442.996 552.907,-441.887 550.863,-440.718"/>
<polygon fill="#fcfcfc" stroke="#fcfcfc" points="552.498,-437.614 542.147,-435.355 548.83,-443.576 552.498,-437.614"/>
</g>
<!-- 3&#45;&gt;4 -->
<g id="edge58" class="edge"><title>3&#45;&gt;4</title>
<path fill="none" stroke="#fcfcfc" stroke-width="2" d="M355.331,-506.877C369.167,-499.308 388.665,-488.794 406,-480 436.704,-464.425 472.371,-447.491 496.592,-436.163"/>
<polygon fill="#fcfcfc" stroke="#fcfcfc" points="498.325,-439.217 505.908,-431.818 495.366,-432.873 498.325,-439.217"/>
</g>
<!-- 15 -->
<g id="node64" class="node"><title>15</title>
<ellipse fill="#edad56" stroke="#edad56" stroke-width="3" cx="138" cy="-262" rx="21.25" ry="21.5"/>
</g>
<!-- 16&#45;&gt;15 -->
<g id="edge60" class="edge"><title>16&#45;&gt;15</title>
<path fill="none" stroke="#fcfcfc" stroke-width="2" d="M58.2203,-401.954C67.3586,-381.32 82.9558,-347.644 99,-320 105.175,-309.361 112.664,-298.094 119.423,-288.412"/>
<polygon fill="#fcfcfc" stroke="#fcfcfc" points="122.437,-290.212 125.365,-280.029 116.727,-286.163 122.437,-290.212"/>
</g>
<!-- 17&#45;&gt;19 -->
<g id="edge62" class="edge"><title>17&#45;&gt;19</title>
<path fill="none" stroke="#fcfcfc" stroke-width="2" d="M188.452,-500.168C193.6,-493.615 199.808,-486.205 206,-480 219.935,-466.036 237.09,-452.023 250.929,-441.386"/>
<polygon fill="#fcfcfc" stroke="#fcfcfc" points="253.2,-444.057 259.06,-435.23 248.975,-438.476 253.2,-444.057"/>
</g>
<!-- 18&#45;&gt;29 -->
<g id="edge64" class="edge"><title>18&#45;&gt;29</title>
<path fill="none" stroke="#fcfcfc" stroke-width="2" d="M354.641,-409.959C360.39,-406.566 366.872,-402.95 373,-400 412.935,-380.773 427.116,-385.271 466,-364 509.011,-340.471 553.952,-305.273 580.438,-283.25"/>
<polygon fill="#fcfcfc" stroke="#fcfcfc" points="582.957,-285.705 588.363,-276.593 578.455,-280.345 582.957,-285.705"/>
</g>
<!-- 11&#45;&gt;4 -->
<g id="edge66" class="edge"><title>11&#45;&gt;4</title>
<path fill="none" stroke="#fcfcfc" stroke-width="2" d="M451.139,-501.897C465.295,-486.776 487.26,-463.313 503.561,-445.9"/>
<polygon fill="#fcfcfc" stroke="#fcfcfc" points="506.325,-448.07 510.604,-438.378 501.215,-443.286 506.325,-448.07"/>
</g>
<!-- 14&#45;&gt;15 -->
<g id="edge68" class="edge"><title>14&#45;&gt;15</title>
<path fill="none" stroke="#fcfcfc" stroke-width="2" d="M106.815,-400.523C103.372,-379.862 100.079,-347.211 107,-320 109.749,-309.192 115.008,-298.219 120.424,-288.825"/>
<polygon fill="#fcfcfc" stroke="#fcfcfc" points="123.576,-290.379 125.806,-280.022 117.604,-286.728 123.576,-290.379"/>
</g>
<!-- 13&#45;&gt;19 -->
<g id="edge76" class="edge"><title>13&#45;&gt;19</title>
<path fill="none" stroke="#fcfcfc" stroke-width="2" d="M244.892,-497.978C250.443,-484.6 257.966,-466.467 264.224,-451.384"/>
<polygon fill="#fcfcfc" stroke="#fcfcfc" points="267.52,-452.572 268.12,-441.994 261.054,-449.889 267.52,-452.572"/>
</g>
<!-- 12&#45;&gt;29 -->
<g id="edge78" class="edge"><title>12&#45;&gt;29</title>
<path fill="none" stroke="#fcfcfc" stroke-width="2" d="M581.416,-321.719C584.877,-312.719 589.07,-301.818 592.899,-291.863"/>
<polygon fill="#fcfcfc" stroke="#fcfcfc" points="596.242,-292.919 596.566,-282.329 589.709,-290.406 596.242,-292.919"/>
</g>
<!-- 32&#45;&gt;23 -->
<g id="edge86" class="edge"><title>32&#45;&gt;23</title>
<path fill="none" stroke="#fcfcfc" stroke-width="2" d="M367.584,-241.719C363.493,-231.081 358.379,-217.786 354.053,-206.538"/>
<polygon fill="#fcfcfc" stroke="#fcfcfc" points="357.21,-204.997 350.354,-196.92 350.677,-207.509 357.21,-204.997"/>
</g>
<!-- 34&#45;&gt;29 -->
<g id="edge88" class="edge"><title>34&#45;&gt;29</title>
<path fill="none" stroke="#fcfcfc" stroke-width="2" d="M627.337,-321.719C623.76,-312.719 619.427,-301.818 615.471,-291.863"/>
<polygon fill="#fcfcfc" stroke="#fcfcfc" points="618.628,-290.33 611.682,-282.329 612.123,-292.915 618.628,-290.33"/>
</g>
<!-- 5 -->
<g id="node88" class="node"><title>5</title>
<ellipse fill="#edad56" stroke="#edad56" stroke-width="3" cx="452" cy="-262" rx="21.25" ry="21.5"/>
</g>
<!-- 4&#45;&gt;5 -->
<g id="edge98" class="edge"><title>4&#45;&gt;5</title>
<path fill="none" stroke="#fcfcfc" stroke-width="2" d="M516.339,-402.255C503.607,-374.697 479.747,-323.056 464.934,-290.994"/>
<polygon fill="#fcfcfc" stroke="#fcfcfc" points="468.021,-289.331 460.649,-281.721 461.666,-292.267 468.021,-289.331"/>
</g>
<!-- 15&#45;&gt;T1 -->
<g id="edge118" class="edge"><title>15&#45;&gt;T1</title>
<path fill="none" stroke="#fcfcfc" stroke-width="2" d="M143.872,-241.217C150.279,-220.543 161.33,-187.366 174,-160 178.878,-149.463 185.079,-138.317 190.785,-128.702"/>
<polygon fill="#fcfcfc" stroke="#fcfcfc" points="193.855,-130.39 196.045,-120.024 187.869,-126.762 193.855,-130.39"/>
</g>
<!-- 29&#45;&gt;T30 -->
<g id="edge124" class="edge"><title>29&#45;&gt;T30</title>
<path fill="none" stroke="#fcfcfc" stroke-width="2" d="M618.027,-245.59C628.335,-234.266 642.512,-218.691 654.145,-205.911"/>
<polygon fill="#fcfcfc" stroke="#fcfcfc" points="656.859,-208.129 661.002,-198.378 651.682,-203.417 656.859,-208.129"/>
</g>
<!-- 37 -->
<g id="node70" class="node"><title>37</title>
<ellipse fill="#edad56" stroke="#edad56" stroke-width="3" cx="684" cy="-614" rx="21.25" ry="21.5"/>
</g>
<!-- 37&#45;&gt;40 -->
<g id="edge71" class="edge"><title>37&#45;&gt;40</title>
<path fill="none" stroke="#fcfcfc" stroke-width="2" d="M666.44,-601.859C649.037,-590.671 621.76,-572.736 599,-556 596.017,-553.807 592.96,-551.496 589.909,-549.144"/>
<polygon fill="#fcfcfc" stroke="#fcfcfc" points="591.935,-546.284 581.903,-542.875 587.619,-551.796 591.935,-546.284"/>
</g>
<!-- 39 -->
<g id="node73" class="node"><title>39</title>
<ellipse fill="#edad56" stroke="#edad56" stroke-width="3" cx="588" cy="-422" rx="21.25" ry="21.5"/>
</g>
<!-- 37&#45;&gt;39 -->
<g id="edge72" class="edge"><title>37&#45;&gt;39</title>
<path fill="none" stroke="#fcfcfc" stroke-width="2" d="M697.765,-597.31C706.287,-586.51 716.444,-571.385 721,-556 730.59,-523.612 739.713,-508.12 721,-480 698.044,-445.504 673.029,-460.453 635,-444 628.971,-441.392 622.53,-438.55 616.41,-435.824"/>
<polygon fill="#fcfcfc" stroke="#fcfcfc" points="617.72,-432.576 607.163,-431.686 614.861,-438.965 617.72,-432.576"/>
</g>
<!-- 41 -->
<g id="node74" class="node"><title>41</title>
<ellipse fill="#edad56" stroke="#edad56" stroke-width="3" cx="696" cy="-342" rx="21.25" ry="21.5"/>
</g>
<!-- 37&#45;&gt;41 -->
<g id="edge73" class="edge"><title>37&#45;&gt;41</title>
<path fill="none" stroke="#fcfcfc" stroke-width="2" d="M703.191,-603.635C712.091,-599.59 722.911,-595.088 733,-592 814.348,-567.099 866.795,-621.569 921,-556 992.011,-470.101 800.684,-383.719 725.155,-353.906"/>
<polygon fill="#fcfcfc" stroke="#fcfcfc" points="726.305,-350.598 715.717,-350.238 723.769,-357.122 726.305,-350.598"/>
</g>
<!-- 37&#45;&gt;38 -->
<g id="edge74" class="edge"><title>37&#45;&gt;38</title>
<path fill="none" stroke="#fcfcfc" stroke-width="2" d="M673.588,-594.876C665.595,-580.961 654.435,-561.534 645.408,-545.821"/>
<polygon fill="#fcfcfc" stroke="#fcfcfc" points="648.396,-543.996 640.38,-537.069 642.326,-547.483 648.396,-543.996"/>
</g>
<!-- 39&#45;&gt;15 -->
<g id="edge90" class="edge"><title>39&#45;&gt;15</title>
<path fill="none" stroke="#fcfcfc" stroke-width="2" d="M571.291,-408.328C566.288,-405.113 560.63,-402.005 555,-400 426.414,-354.209 374.317,-420.361 250,-364 211.816,-346.689 177.582,-311.52 157.295,-287.605"/>
<polygon fill="#fcfcfc" stroke="#fcfcfc" points="159.791,-285.132 150.717,-279.663 154.4,-289.597 159.791,-285.132"/>
</g>
<!-- 41&#45;&gt;29 -->
<g id="edge92" class="edge"><title>41&#45;&gt;29</title>
<path fill="none" stroke="#fcfcfc" stroke-width="2" d="M679.975,-327.413C665.595,-315.222 644.294,-297.163 627.903,-283.266"/>
<polygon fill="#fcfcfc" stroke="#fcfcfc" points="629.733,-280.228 619.842,-276.431 625.206,-285.567 629.733,-280.228"/>
</g>
<!-- 38&#45;&gt;4 -->
<g id="edge94" class="edge"><title>38&#45;&gt;4</title>
<path fill="none" stroke="#fcfcfc" stroke-width="2" d="M617.444,-500.483C612.067,-493.832 605.53,-486.267 599,-480 583.938,-465.544 565.312,-451.213 550.515,-440.537"/>
<polygon fill="#fcfcfc" stroke="#fcfcfc" points="552.479,-437.639 542.301,-434.7 548.425,-443.346 552.479,-437.639"/>
</g>
<!-- 5&#45;&gt;23 -->
<g id="edge106" class="edge"><title>5&#45;&gt;23</title>
<path fill="none" stroke="#fcfcfc" stroke-width="2" d="M434.809,-248.468C416.18,-234.888 386.432,-213.202 366.327,-198.546"/>
<polygon fill="#fcfcfc" stroke="#fcfcfc" points="368.244,-195.613 358.102,-192.551 364.121,-201.27 368.244,-195.613"/>
</g>
<!-- 6 -->
<g id="node95" class="node"><title>6</title>
<ellipse fill="#edad56" stroke="#edad56" stroke-width="3" cx="467" cy="-182" rx="21.25" ry="21.5"/>
</g>
<!-- 5&#45;&gt;6 -->
<g id="edge107" class="edge"><title>5&#45;&gt;6</title>
<path fill="none" stroke="#fcfcfc" stroke-width="2" d="M455.941,-240.506C457.543,-232.177 459.427,-222.38 461.181,-213.257"/>
<polygon fill="#fcfcfc" stroke="#fcfcfc" points="464.634,-213.838 463.085,-203.357 457.76,-212.516 464.634,-213.838"/>
</g>
<!-- T35 -->
<g id="node96" class="node"><title>T35</title>
<ellipse fill="#edad56" stroke="#edad56" stroke-width="3" cx="406" cy="-182" rx="21.25" ry="21.5"/>
</g>
<!-- 5&#45;&gt;T35 -->
<g id="edge108" class="edge"><title>5&#45;&gt;T35</title>
<path fill="none" stroke="#fcfcfc" stroke-width="2" d="M441.331,-242.909C435.484,-232.994 428.127,-220.52 421.642,-209.524"/>
<polygon fill="#fcfcfc" stroke="#fcfcfc" points="424.547,-207.559 416.452,-200.724 418.518,-211.115 424.547,-207.559"/>
</g>
<!-- 22 -->
<g id="node98" class="node"><title>22</title>
<ellipse fill="#edad56" stroke="#edad56" stroke-width="3" cx="314" cy="-262" rx="21.25" ry="21.5"/>
</g>
<!-- 21&#45;&gt;22 -->
<g id="edge110" class="edge"><title>21&#45;&gt;22</title>
<path fill="none" stroke="#fcfcfc" stroke-width="2" d="M314,-320.097C314,-312.077 314,-302.744 314,-293.977"/>
<polygon fill="#fcfcfc" stroke="#fcfcfc" points="317.5,-293.69 314,-283.69 310.5,-293.69 317.5,-293.69"/>
</g>
<!-- 20&#45;&gt;15 -->
<g id="edge112" class="edge"><title>20&#45;&gt;15</title>
<path fill="none" stroke="#fcfcfc" stroke-width="2" d="M138,-320.097C138,-312.077 138,-302.744 138,-293.977"/>
<polygon fill="#fcfcfc" stroke="#fcfcfc" points="141.5,-293.69 138,-283.69 134.5,-293.69 141.5,-293.69"/>
</g>
<!-- 7 -->
<g id="node102" class="node"><title>7</title>
<ellipse fill="#edad56" stroke="#edad56" stroke-width="3" cx="467" cy="-102" rx="21.25" ry="21.5"/>
</g>
<!-- 6&#45;&gt;7 -->
<g id="edge116" class="edge"><title>6&#45;&gt;7</title>
<path fill="none" stroke="#fcfcfc" stroke-width="2" d="M467,-160.097C467,-152.077 467,-142.744 467,-133.977"/>
<polygon fill="#fcfcfc" stroke="#fcfcfc" points="470.5,-133.69 467,-123.69 463.5,-133.69 470.5,-133.69"/>
</g>
<!-- 22&#45;&gt;23 -->
<g id="edge122" class="edge"><title>22&#45;&gt;23</title>
<path fill="none" stroke="#fcfcfc" stroke-width="2" d="M321.663,-241.719C325.891,-231.081 331.175,-217.786 335.645,-206.538"/>
<polygon fill="#fcfcfc" stroke="#fcfcfc" points="339.027,-207.505 339.468,-196.92 332.522,-204.92 339.027,-207.505"/>
</g>
<!-- 22&#45;&gt;T35 -->
<g id="edge120" class="edge"><title>22&#45;&gt;T35</title>
<path fill="none" stroke="#fcfcfc" stroke-width="2" d="M330.025,-247.413C344.405,-235.222 365.706,-217.163 382.097,-203.266"/>
<polygon fill="#fcfcfc" stroke="#fcfcfc" points="384.794,-205.567 390.158,-196.431 380.267,-200.228 384.794,-205.567"/>
</g>
<!-- T8 -->
<g id="node108" class="node"><title>T8</title>
<ellipse fill="#edad56" stroke="#edad56" stroke-width="3" cx="467" cy="-22" rx="21.25" ry="21.5"/>
</g>
<!-- 7&#45;&gt;T8 -->
<g id="edge126" class="edge"><title>7&#45;&gt;T8</title>
<path fill="none" stroke="#fcfcfc" stroke-width="2" d="M467,-80.0974C467,-72.077 467,-62.7444 467,-53.9772"/>
<polygon fill="#fcfcfc" stroke="#fcfcfc" points="470.5,-53.6898 467,-43.6898 463.5,-53.6898 470.5,-53.6898"/>
</g>
</g>
</svg>
