<?xml version="1.0" encoding="UTF-8" standalone="no"?>
<!DOCTYPE svg PUBLIC "-//W3C//DTD SVG 1.1//EN"
 "http://www.w3.org/Graphics/SVG/1.1/DTD/svg11.dtd">
<!-- Generated by graphviz version 2.40.1 (20161225.0304)
 -->
<!-- Title: world Pages: 1 -->
<svg width="1107pt" height="776pt"
 viewBox="0.00 0.00 1106.50 776.02" xmlns="http://www.w3.org/2000/svg" xmlns:xlink="http://www.w3.org/1999/xlink">
<g id="graph0" class="graph" transform="scale(1 1) rotate(0) translate(36 740.0152)">
<title>world</title>
<polygon fill="#2e3e56" stroke="transparent" points="-36,36 -36,-740.0152 1070.5,-740.0152 1070.5,36 -36,36"/>
<!-- S35 -->
<g id="node1" class="node">
<title>S35</title>
<g id="a_node1"><a xlink:title="Go S35">
<ellipse fill="#8eabd9" stroke="#8eabd9" stroke-width="3" cx="569" cy="-682.5152" rx="21.5" ry="21.5"/>
</a>
</g>
</g>
<!-- 43 -->
<g id="node7" class="node">
<title>43</title>
<ellipse fill="#a5cf80" stroke="#a5cf80" stroke-width="3" cx="601" cy="-603.5152" rx="21.5" ry="21.5"/>
</g>
<!-- S35&#45;&gt;43 -->
<g id="edge7" class="edge">
<title>S35&#45;&gt;43</title>
<path fill="none" stroke="#fcfcfc" stroke-width="2" d="M577.075,-662.5802C580.7132,-653.5983 585.0828,-642.8108 589.0865,-632.9266"/>
<polygon fill="#fcfcfc" stroke="#fcfcfc" stroke-width="2" points="592.4172,-634.0264 592.9276,-623.4439 585.9293,-631.3983 592.4172,-634.0264"/>
</g>
<!-- 36 -->
<g id="node19" class="node">
<title>36</title>
<ellipse fill="#edad56" stroke="#edad56" stroke-width="3" cx="538" cy="-603.5152" rx="21.5" ry="21.5"/>
</g>
<!-- S35&#45;&gt;36 -->
<g id="edge8" class="edge">
<title>S35&#45;&gt;36</title>
<path fill="none" stroke="#fcfcfc" stroke-width="2" d="M561.0167,-662.1707C557.5454,-653.3245 553.4104,-642.7869 549.6092,-633.1"/>
<polygon fill="#fcfcfc" stroke="#fcfcfc" stroke-width="2" points="552.8673,-631.8211 545.9562,-623.7907 546.351,-634.3782 552.8673,-631.8211"/>
</g>
<!-- 23 -->
<g id="node2" class="node">
<title>23</title>
<g id="a_node2"><a xlink:title="Go 23">
<polygon fill="#edad56" stroke="#edad56" stroke-width="3" points="630.5,-185.0623 609,-197.5 587.5,-185.0623 587.5201,-164.9377 630.4799,-164.9377 630.5,-185.0623"/>
</a>
</g>
</g>
<!-- T1 -->
<g id="node3" class="node">
<title>T1</title>
<g id="a_node3"><a xlink:title="Go T1">
<polygon fill="#9362a8" stroke="#9362a8" stroke-width="3" points="439.5,-118.5 396.5,-118.5 396.5,-82.5 439.5,-82.5 439.5,-118.5"/>
</a>
</g>
</g>
<!-- 23&#45;&gt;T1 -->
<g id="edge70" class="edge">
<title>23&#45;&gt;T1</title>
<path fill="none" stroke="#fcfcfc" stroke-width="2" d="M587.4612,-170.5913C553.644,-156.6041 487.946,-129.4305 449.0334,-113.3358"/>
<polygon fill="#fcfcfc" stroke="#fcfcfc" stroke-width="2" points="450.3317,-110.0853 439.7532,-109.4974 447.6562,-116.5538 450.3317,-110.0853"/>
</g>
<!-- T24 -->
<g id="node25" class="node">
<title>T24</title>
<ellipse fill="#edad56" stroke="#edad56" stroke-width="3" cx="729" cy="-100.5" rx="21.5" ry="21.5"/>
</g>
<!-- 23&#45;&gt;T24 -->
<g id="edge69" class="edge">
<title>23&#45;&gt;T24</title>
<path fill="none" stroke="#fcfcfc" stroke-width="2" d="M629.2302,-164.7801C632.4772,-162.4817 635.8164,-160.1555 639,-158 659.7883,-143.9247 683.7629,-128.6535 701.7382,-117.3887"/>
<polygon fill="#fcfcfc" stroke="#fcfcfc" stroke-width="2" points="703.9143,-120.1562 710.5425,-111.8908 700.2066,-114.2188 703.9143,-120.1562"/>
</g>
<!-- T99 -->
<g id="node4" class="node">
<title>T99</title>
<g id="a_node4"><a xlink:title="Go T1">
<polygon fill="#9362a8" stroke="#9362a8" stroke-width="3" points="651.5,-700.5152 608.5,-700.5152 608.5,-664.5152 651.5,-664.5152 651.5,-700.5152"/>
</a>
</g>
</g>
<!-- P4 -->
<g id="node5" class="node">
<title>P4</title>
<g id="a_node5"><a xlink:title="Go P4">
<ellipse fill="#f2688d" stroke="#f2688d" stroke-width="3" cx="307" cy="-100.5" rx="21.5" ry="18"/>
</a>
</g>
</g>
<!-- T30 -->
<g id="node6" class="node">
<title>T30</title>
<g id="a_node6"><a xlink:title="Go T30">
<ellipse fill="#ea555b" stroke="#ea555b" stroke-width="3" cx="307" cy="-179.5" rx="21.5" ry="21.5"/>
</a>
</g>
</g>
<!-- T30&#45;&gt;P4 -->
<g id="edge1" class="edge">
<title>T30&#45;&gt;P4</title>
<path fill="none" stroke="#fcfcfc" stroke-width="2" d="M307,-157.9129C307,-148.9509 307,-138.4281 307,-128.8562"/>
<polygon fill="#fcfcfc" stroke="#fcfcfc" stroke-width="2" points="310.5001,-128.587 307,-118.587 303.5001,-128.5871 310.5001,-128.587"/>
</g>
<!-- 40 -->
<g id="node8" class="node">
<title>40</title>
<ellipse fill="#a5cf80" stroke="#a5cf80" stroke-width="3" cx="601" cy="-510.0076" rx="36.0152" ry="36.0152"/>
<text text-anchor="middle" x="601" y="-505.8076" font-family="Times,serif" font-size="14.00" fill="#000000">Another</text>
</g>
<!-- 43&#45;&gt;40 -->
<g id="edge45" class="edge">
<title>43&#45;&gt;40</title>
<path fill="none" stroke="#fcfcfc" stroke-width="2" d="M601,-581.8276C601,-574.1446 601,-565.1795 601,-556.2397"/>
<polygon fill="#fcfcfc" stroke="#fcfcfc" stroke-width="2" points="604.5001,-556.227 601,-546.227 597.5001,-556.227 604.5001,-556.227"/>
</g>
<!-- 38 -->
<g id="node42" class="node">
<title>38</title>
<ellipse fill="#edad56" stroke="#edad56" stroke-width="3" cx="677" cy="-510.0076" rx="21.5" ry="21.5"/>
</g>
<!-- 43&#45;&gt;38 -->
<g id="edge44" class="edge">
<title>43&#45;&gt;38</title>
<path fill="none" stroke="#fcfcfc" stroke-width="2" d="M614.5873,-586.7979C626.2946,-572.3936 643.3632,-551.3931 656.6927,-534.993"/>
<polygon fill="#fcfcfc" stroke="#fcfcfc" stroke-width="2" points="659.6829,-536.8631 663.2741,-526.8954 654.2508,-532.448 659.6829,-536.8631"/>
</g>
<!-- 19 -->
<g id="node10" class="node">
<title>19</title>
<ellipse fill="#ab6d16" stroke="#ab6d16" stroke-width="3" cx="537" cy="-416.5" rx="21.5" ry="21.5"/>
</g>
<!-- 40&#45;&gt;19 -->
<g id="edge52" class="edge">
<title>40&#45;&gt;19</title>
<path fill="none" stroke="#fcfcfc" stroke-width="2" d="M580.574,-480.1641C572.3533,-468.1532 562.9549,-454.4216 554.9961,-442.7934"/>
<polygon fill="#fcfcfc" stroke="#fcfcfc" stroke-width="2" points="557.7704,-440.6499 549.234,-434.3745 551.9939,-444.6036 557.7704,-440.6499"/>
</g>
<!-- 28 -->
<g id="node9" class="node">
<title>28</title>
<ellipse fill="#ab6d16" stroke="#ab6d16" stroke-width="3" cx="249" cy="-337.5" rx="21.5" ry="21.5"/>
</g>
<!-- 29 -->
<g id="node38" class="node">
<title>29</title>
<ellipse fill="#edad56" stroke="#edad56" stroke-width="3" cx="218" cy="-258.5" rx="21.5" ry="21.5"/>
</g>
<!-- 28&#45;&gt;29 -->
<g id="edge62" class="edge">
<title>28&#45;&gt;29</title>
<path fill="none" stroke="#fcfcfc" stroke-width="2" d="M241.0167,-317.1555C237.5454,-308.3093 233.4104,-297.7717 229.6092,-288.0848"/>
<polygon fill="#fcfcfc" stroke="#fcfcfc" stroke-width="2" points="232.8673,-286.8059 225.9562,-278.7755 226.351,-289.363 232.8673,-286.8059"/>
</g>
<!-- 19&#45;&gt;28 -->
<g id="edge54" class="edge">
<title>19&#45;&gt;28</title>
<path fill="none" stroke="#fcfcfc" stroke-width="2" d="M517.4605,-407.4449C507.5992,-403.1672 495.349,-398.2902 484,-395 397.6745,-369.9735 369.1604,-390.5507 285,-359 281.8644,-357.8245 278.6933,-356.3773 275.6007,-354.7939"/>
<polygon fill="#fcfcfc" stroke="#fcfcfc" stroke-width="2" points="277.104,-351.6238 266.6724,-349.771 273.6718,-357.7246 277.104,-351.6238"/>
</g>
<!-- 21 -->
<g id="node44" class="node">
<title>21</title>
<ellipse fill="#edad56" stroke="#edad56" stroke-width="3" cx="609" cy="-337.5" rx="21.5" ry="21.5"/>
</g>
<!-- 19&#45;&gt;21 -->
<g id="edge55" class="edge">
<title>19&#45;&gt;21</title>
<path fill="none" stroke="#fcfcfc" stroke-width="2" d="M551.5703,-400.5132C561.9149,-389.1628 575.9714,-373.7398 587.5884,-360.9933"/>
<polygon fill="#fcfcfc" stroke="#fcfcfc" stroke-width="2" points="590.3022,-363.2116 594.4514,-353.4631 585.1285,-358.4964 590.3022,-363.2116"/>
</g>
<!-- 20 -->
<g id="node45" class="node">
<title>20</title>
<ellipse fill="#edad56" stroke="#edad56" stroke-width="3" cx="548" cy="-337.5" rx="21.5" ry="21.5"/>
</g>
<!-- 19&#45;&gt;20 -->
<g id="edge56" class="edge">
<title>19&#45;&gt;20</title>
<path fill="none" stroke="#fcfcfc" stroke-width="2" d="M540.0058,-394.9129C541.1093,-386.9881 542.3826,-377.8428 543.5842,-369.2138"/>
<polygon fill="#fcfcfc" stroke="#fcfcfc" stroke-width="2" points="547.0852,-369.4482 544.9978,-359.061 540.1521,-368.4827 547.0852,-369.4482"/>
</g>
<!-- S8 -->
<g id="node11" class="node">
<title>S8</title>
<ellipse fill="#edad56" stroke="#edad56" stroke-width="3" cx="846" cy="-603.5152" rx="21.5" ry="21.5"/>
</g>
<!-- 9 -->
<g id="node12" class="node">
<title>9</title>
<ellipse fill="#edad56" stroke="#edad56" stroke-width="3" cx="846" cy="-510.0076" rx="21.5" ry="21.5"/>
</g>
<!-- S8&#45;&gt;9 -->
<g id="edge2" class="edge">
<title>S8&#45;&gt;9</title>
<path fill="none" stroke="#fcfcfc" stroke-width="2" d="M846,-581.8276C846,-569.9078 846,-554.9017 846,-541.6925"/>
<polygon fill="#fcfcfc" stroke="#fcfcfc" stroke-width="2" points="849.5001,-541.5775 846,-531.5775 842.5001,-541.5776 849.5001,-541.5775"/>
</g>
<!-- 9&#45;&gt;T1 -->
<g id="edge12" class="edge">
<title>9&#45;&gt;T1</title>
<path fill="none" stroke="#fcfcfc" stroke-width="2" d="M862.0826,-495.5481C875.6699,-482.1633 894.137,-460.919 902,-438 908.2018,-419.9232 908.6055,-412.9332 902,-395 854.1628,-265.1279 819.2004,-228.3308 700,-158 657.7072,-133.0463 514.1143,-112.5142 449.711,-104.3246"/>
<polygon fill="#fcfcfc" stroke="#fcfcfc" stroke-width="2" points="450.08,-100.8435 439.7224,-103.0729 449.2096,-107.7892 450.08,-100.8435"/>
</g>
<!-- 42 -->
<g id="node23" class="node">
<title>42</title>
<ellipse fill="#edad56" stroke="#edad56" stroke-width="3" cx="810" cy="-416.5" rx="21.5" ry="21.5"/>
</g>
<!-- 9&#45;&gt;42 -->
<g id="edge11" class="edge">
<title>9&#45;&gt;42</title>
<path fill="none" stroke="#fcfcfc" stroke-width="2" d="M838.1885,-489.7178C833.2823,-476.9743 826.8703,-460.3196 821.4015,-446.1147"/>
<polygon fill="#fcfcfc" stroke="#fcfcfc" stroke-width="2" points="824.6555,-444.8249 817.7962,-436.7502 818.1229,-447.34 824.6555,-444.8249"/>
</g>
<!-- S24 -->
<g id="node13" class="node">
<title>S24</title>
<ellipse fill="#edad56" stroke="#edad56" stroke-width="3" cx="928" cy="-603.5152" rx="21.5" ry="21.5"/>
</g>
<!-- 25 -->
<g id="node14" class="node">
<title>25</title>
<ellipse fill="#edad56" stroke="#edad56" stroke-width="3" cx="918" cy="-510.0076" rx="21.5" ry="21.5"/>
</g>
<!-- S24&#45;&gt;25 -->
<g id="edge3" class="edge">
<title>S24&#45;&gt;25</title>
<path fill="none" stroke="#fcfcfc" stroke-width="2" d="M925.6807,-581.8276C924.4059,-569.9078 922.8011,-554.9017 921.3885,-541.6925"/>
<polygon fill="#fcfcfc" stroke="#fcfcfc" stroke-width="2" points="924.8504,-541.1486 920.3068,-531.5775 917.8901,-541.8931 924.8504,-541.1486"/>
</g>
<!-- 27 -->
<g id="node15" class="node">
<title>27</title>
<ellipse fill="#edad56" stroke="#edad56" stroke-width="3" cx="1013" cy="-179.5" rx="21.5" ry="21.5"/>
</g>
<!-- S24&#45;&gt;27 -->
<g id="edge4" class="edge">
<title>S24&#45;&gt;27</title>
<path fill="none" stroke="#fcfcfc" stroke-width="2" d="M941.5406,-586.0649C964.8309,-554.2476 1010,-483.8585 1010,-416.5 1010,-416.5 1010,-416.5 1010,-337.5 1010,-293.7479 1011.1642,-243.1931 1012.0421,-211.2891"/>
<polygon fill="#fcfcfc" stroke="#fcfcfc" stroke-width="2" points="1015.5426,-211.3162 1012.3267,-201.2213 1008.5454,-211.1183 1015.5426,-211.3162"/>
</g>
<!-- 25&#45;&gt;T1 -->
<!-- weaklink -->
<g id="edge13" class="edge">
<title>25&#45;&gt;T1</title>
<path fill="none" stroke="#445773" stroke-width="2" d="M927.9268,-490.5436C956.3333,-431.8136 1030.5219,-254.4955 944,-158 927.382,-139.4664 561.7278,-111.0897 450.0826,-102.8301"/>
<polygon fill="#445773" stroke="#445773" stroke-width="2" points="450.0266,-99.3166 439.7967,-102.073 449.5127,-106.2977 450.0266,-99.3166"/>
</g>
<!-- 26 -->
<g id="node24" class="node">
<title>26</title>
<ellipse fill="#edad56" stroke="#edad56" stroke-width="3" cx="871" cy="-416.5" rx="21.5" ry="21.5"/>
</g>
<!-- 25&#45;&gt;26 -->
<g id="edge14" class="edge">
<title>25&#45;&gt;26</title>
<path fill="none" stroke="#fcfcfc" stroke-width="2" d="M908.2616,-490.6328C901.6446,-477.4682 892.7802,-459.8322 885.3574,-445.0645"/>
<polygon fill="#fcfcfc" stroke="#fcfcfc" stroke-width="2" points="888.3442,-443.213 880.726,-435.85 882.0898,-446.3567 888.3442,-443.213"/>
</g>
<!-- 27&#45;&gt;T24 -->
<g id="edge15" class="edge">
<title>27&#45;&gt;T24</title>
<path fill="none" stroke="#fcfcfc" stroke-width="2" d="M994.8853,-167.1928C989.3304,-163.8334 983.0769,-160.4491 977,-158 902.4922,-127.9723 808.7735,-111.5987 760.6794,-104.627"/>
<polygon fill="#fcfcfc" stroke="#fcfcfc" stroke-width="2" points="760.9685,-101.1333 750.5782,-103.2047 759.9925,-108.0649 760.9685,-101.1333"/>
</g>
<!-- S1 -->
<g id="node16" class="node">
<title>S1</title>
<ellipse fill="#edad56" stroke="#edad56" stroke-width="3" cx="330" cy="-682.5152" rx="21.5" ry="21.5"/>
</g>
<!-- 2 -->
<g id="node17" class="node">
<title>2</title>
<ellipse fill="#edad56" stroke="#edad56" stroke-width="3" cx="380" cy="-603.5152" rx="21.5" ry="21.5"/>
</g>
<!-- S1&#45;&gt;2 -->
<g id="edge5" class="edge">
<title>S1&#45;&gt;2</title>
<path fill="none" stroke="#fcfcfc" stroke-width="2" d="M341.5967,-664.1925C347.9704,-654.1219 355.9944,-641.444 363.0576,-630.2842"/>
<polygon fill="#fcfcfc" stroke="#fcfcfc" stroke-width="2" points="366.0756,-632.0602 368.4662,-621.7386 360.1608,-628.3166 366.0756,-632.0602"/>
</g>
<!-- 10 -->
<g id="node18" class="node">
<title>10</title>
<ellipse fill="#edad56" stroke="#edad56" stroke-width="3" cx="280" cy="-603.5152" rx="21.5" ry="21.5"/>
</g>
<!-- S1&#45;&gt;10 -->
<g id="edge6" class="edge">
<title>S1&#45;&gt;10</title>
<path fill="none" stroke="#fcfcfc" stroke-width="2" d="M318.4033,-664.1925C312.0296,-654.1219 304.0056,-641.444 296.9424,-630.2842"/>
<polygon fill="#fcfcfc" stroke="#fcfcfc" stroke-width="2" points="299.8392,-628.3166 291.5338,-621.7386 293.9244,-632.0602 299.8392,-628.3166"/>
</g>
<!-- 2&#45;&gt;T1 -->
<g id="edge16" class="edge">
<title>2&#45;&gt;T1</title>
<path fill="none" stroke="#fcfcfc" stroke-width="2" d="M359.3416,-596.5046C345.4922,-591.9698 326.7854,-586.1611 310,-582.0152 226.1366,-561.3015 178.8289,-608.3259 119,-546.0152 78.7059,-504.0496 100,-474.6784 100,-416.5 100,-416.5 100,-416.5 100,-258.5 100,-195.0767 305.4359,-131.5353 386.0667,-109.0386"/>
<polygon fill="#fcfcfc" stroke="#fcfcfc" stroke-width="2" points="387.4327,-112.2927 396.1426,-106.2604 385.572,-105.5445 387.4327,-112.2927"/>
</g>
<!-- 3 -->
<g id="node26" class="node">
<title>3</title>
<ellipse fill="#edad56" stroke="#edad56" stroke-width="3" cx="606" cy="-416.5" rx="21.5" ry="21.5"/>
</g>
<!-- 2&#45;&gt;3 -->
<g id="edge17" class="edge">
<title>2&#45;&gt;3</title>
<path fill="none" stroke="#fcfcfc" stroke-width="2" d="M399.5754,-594.1349C420.2785,-583.7716 453.4195,-565.8969 479,-546.0152 520.4144,-513.8271 561.6986,-468.6989 585.4911,-441.0941"/>
<polygon fill="#fcfcfc" stroke="#fcfcfc" stroke-width="2" points="588.177,-443.3385 592.0089,-433.4609 582.8536,-438.793 588.177,-443.3385"/>
</g>
<!-- 16 -->
<g id="node27" class="node">
<title>16</title>
<ellipse fill="#edad56" stroke="#edad56" stroke-width="3" cx="454" cy="-416.5" rx="21.5" ry="21.5"/>
</g>
<!-- 2&#45;&gt;16 -->
<g id="edge18" class="edge">
<title>2&#45;&gt;16</title>
<path fill="none" stroke="#fcfcfc" stroke-width="2" d="M384.3531,-582.2498C390.1369,-556.0582 401.5735,-510.549 418,-474 422.8795,-463.1432 429.5168,-451.8972 435.7637,-442.2612"/>
<polygon fill="#fcfcfc" stroke="#fcfcfc" stroke-width="2" points="438.6893,-444.1826 441.3293,-433.9219 432.8669,-440.2967 438.6893,-444.1826"/>
</g>
<!-- 17 -->
<g id="node28" class="node">
<title>17</title>
<ellipse fill="#edad56" stroke="#edad56" stroke-width="3" cx="449" cy="-510.0076" rx="21.5" ry="21.5"/>
</g>
<!-- 2&#45;&gt;17 -->
<g id="edge19" class="edge">
<title>2&#45;&gt;17</title>
<path fill="none" stroke="#fcfcfc" stroke-width="2" d="M392.9784,-585.9271C403.387,-571.8216 418.1471,-551.819 429.9039,-535.8863"/>
<polygon fill="#fcfcfc" stroke="#fcfcfc" stroke-width="2" points="432.9585,-537.6414 436.0798,-527.5168 427.326,-533.4851 432.9585,-537.6414"/>
</g>
<!-- 18 -->
<g id="node29" class="node">
<title>18</title>
<ellipse fill="#edad56" stroke="#edad56" stroke-width="3" cx="150" cy="-510.0076" rx="21.5" ry="21.5"/>
</g>
<!-- 2&#45;&gt;18 -->
<g id="edge20" class="edge">
<title>2&#45;&gt;18</title>
<path fill="none" stroke="#fcfcfc" stroke-width="2" d="M359.2173,-596.966C345.3154,-592.626 326.5968,-586.861 310,-582.0152 252.4506,-565.2124 230.3714,-578.5266 180,-546.0152 175.7785,-543.2905 171.8481,-539.7853 168.3139,-536.0345"/>
<polygon fill="#fcfcfc" stroke="#fcfcfc" stroke-width="2" points="170.7823,-533.5334 161.6498,-528.1623 165.4396,-538.0562 170.7823,-533.5334"/>
</g>
<!-- 10&#45;&gt;T1 -->
<g id="edge21" class="edge">
<title>10&#45;&gt;T1</title>
<path fill="none" stroke="#fcfcfc" stroke-width="2" d="M258.5328,-600.699C207.5868,-593.6251 81.3067,-573.6774 50,-546.0152 3.7612,-505.1591 0,-478.2029 0,-416.5 0,-416.5 0,-416.5 0,-258.5 0,-96.9023 179.4689,-158.0248 337,-122 353.4792,-118.2315 371.6849,-113.455 386.6555,-109.3617"/>
<polygon fill="#fcfcfc" stroke="#fcfcfc" stroke-width="2" points="387.7351,-112.6947 396.4418,-106.6579 385.8708,-105.9474 387.7351,-112.6947"/>
</g>
<!-- 11 -->
<g id="node30" class="node">
<title>11</title>
<ellipse fill="#edad56" stroke="#edad56" stroke-width="3" cx="349" cy="-416.5" rx="21.5" ry="21.5"/>
</g>
<!-- 10&#45;&gt;11 -->
<g id="edge22" class="edge">
<title>10&#45;&gt;11</title>
<path fill="none" stroke="#fcfcfc" stroke-width="2" d="M284.7483,-582.4198C290.9303,-556.3994 302.7683,-511.0628 318,-474 322.1708,-463.8512 327.6169,-453.1607 332.7785,-443.7875"/>
<polygon fill="#fcfcfc" stroke="#fcfcfc" stroke-width="2" points="335.9154,-445.3504 337.7876,-434.9222 329.821,-441.9068 335.9154,-445.3504"/>
</g>
<!-- 14 -->
<g id="node31" class="node">
<title>14</title>
<ellipse fill="#edad56" stroke="#edad56" stroke-width="3" cx="448" cy="-337.5" rx="21.5" ry="21.5"/>
</g>
<!-- 10&#45;&gt;14 -->
<g id="edge23" class="edge">
<title>10&#45;&gt;14</title>
<path fill="none" stroke="#fcfcfc" stroke-width="2" d="M276.8491,-582.0421C271.987,-539.9147 267.887,-446.0971 318,-395 350.7825,-361.5738 375.4197,-380.5193 417,-359 418.745,-358.0969 420.5068,-357.1102 422.2574,-356.0719"/>
<polygon fill="#fcfcfc" stroke="#fcfcfc" stroke-width="2" points="424.2618,-358.9444 430.7884,-350.5985 420.4817,-353.0527 424.2618,-358.9444"/>
</g>
<!-- 13 -->
<g id="node32" class="node">
<title>13</title>
<ellipse fill="#edad56" stroke="#edad56" stroke-width="3" cx="349" cy="-510.0076" rx="21.5" ry="21.5"/>
</g>
<!-- 10&#45;&gt;13 -->
<g id="edge24" class="edge">
<title>10&#45;&gt;13</title>
<path fill="none" stroke="#fcfcfc" stroke-width="2" d="M292.9784,-585.9271C303.387,-571.8216 318.1471,-551.819 329.9039,-535.8863"/>
<polygon fill="#fcfcfc" stroke="#fcfcfc" stroke-width="2" points="332.9585,-537.6414 336.0798,-527.5168 327.326,-533.4851 332.9585,-537.6414"/>
</g>
<!-- 12 -->
<g id="node33" class="node">
<title>12</title>
<ellipse fill="#edad56" stroke="#edad56" stroke-width="3" cx="50" cy="-416.5" rx="21.5" ry="21.5"/>
</g>
<!-- 10&#45;&gt;12 -->
<g id="edge25" class="edge">
<title>10&#45;&gt;12</title>
<path fill="none" stroke="#fcfcfc" stroke-width="2" d="M258.7344,-599.8787C213.6189,-591.7547 110.4427,-570.8777 86,-546.0152 60.4996,-520.0768 52.7057,-477.7151 50.5102,-448.5425"/>
<polygon fill="#fcfcfc" stroke="#fcfcfc" stroke-width="2" points="53.9981,-448.2299 49.9322,-438.4463 47.0096,-448.63 53.9981,-448.2299"/>
</g>
<!-- 36&#45;&gt;19 -->
<g id="edge46" class="edge">
<title>36&#45;&gt;19</title>
<path fill="none" stroke="#fcfcfc" stroke-width="2" d="M537.8833,-581.6962C537.7072,-548.7571 537.3725,-486.1575 537.1695,-448.1904"/>
<polygon fill="#fcfcfc" stroke="#fcfcfc" stroke-width="2" points="540.6694,-448.1612 537.1159,-438.1801 533.6695,-448.1987 540.6694,-448.1612"/>
</g>
<!-- S30 -->
<g id="node20" class="node">
<title>S30</title>
<ellipse fill="#edad56" stroke="#edad56" stroke-width="3" cx="211" cy="-510.0076" rx="21.5" ry="21.5"/>
</g>
<!-- 31 -->
<g id="node21" class="node">
<title>31</title>
<ellipse fill="#edad56" stroke="#edad56" stroke-width="3" cx="387" cy="-337.5" rx="21.5" ry="21.5"/>
</g>
<!-- S30&#45;&gt;31 -->
<g id="edge9" class="edge">
<title>S30&#45;&gt;31</title>
<path fill="none" stroke="#fcfcfc" stroke-width="2" d="M215.365,-488.5319C221.5808,-463.0628 235.3146,-420.8185 262,-395 292.6655,-365.3307 312.7924,-377.9954 351,-359 353.9334,-357.5416 356.9479,-355.9317 359.9243,-354.2684"/>
<polygon fill="#fcfcfc" stroke="#fcfcfc" stroke-width="2" points="361.7311,-357.2665 368.6203,-349.2173 358.2152,-351.2136 361.7311,-357.2665"/>
</g>
<!-- 33 -->
<g id="node22" class="node">
<title>33</title>
<ellipse fill="#edad56" stroke="#edad56" stroke-width="3" cx="188" cy="-416.5" rx="21.5" ry="21.5"/>
</g>
<!-- S30&#45;&gt;33 -->
<g id="edge10" class="edge">
<title>S30&#45;&gt;33</title>
<path fill="none" stroke="#fcfcfc" stroke-width="2" d="M205.7809,-488.7893C202.7814,-476.5946 198.9596,-461.0567 195.6284,-447.5136"/>
<polygon fill="#fcfcfc" stroke="#fcfcfc" stroke-width="2" points="198.9857,-446.5089 193.1984,-437.6344 192.1883,-448.1809 198.9857,-446.5089"/>
</g>
<!-- 31&#45;&gt;T1 -->
<g id="edge26" class="edge">
<title>31&#45;&gt;T1</title>
<path fill="none" stroke="#fcfcfc" stroke-width="2" d="M389.8057,-316.0498C395.4175,-273.147 408.0232,-176.7741 414.3013,-128.7768"/>
<polygon fill="#fcfcfc" stroke="#fcfcfc" stroke-width="2" points="417.7848,-129.1304 415.6114,-118.7609 410.844,-128.2225 417.7848,-129.1304"/>
</g>
<!-- 32 -->
<g id="node34" class="node">
<title>32</title>
<ellipse fill="#edad56" stroke="#edad56" stroke-width="3" cx="437" cy="-258.5" rx="21.5" ry="21.5"/>
</g>
<!-- 31&#45;&gt;32 -->
<g id="edge27" class="edge">
<title>31&#45;&gt;32</title>
<path fill="none" stroke="#fcfcfc" stroke-width="2" d="M398.5967,-319.1772C404.9704,-309.1067 412.9944,-296.4288 420.0576,-285.269"/>
<polygon fill="#fcfcfc" stroke="#fcfcfc" stroke-width="2" points="423.0756,-287.045 425.4662,-276.7234 417.1608,-283.3014 423.0756,-287.045"/>
</g>
<!-- 33&#45;&gt;T30 -->
<g id="edge28" class="edge">
<title>33&#45;&gt;T30</title>
<path fill="none" stroke="#fcfcfc" stroke-width="2" d="M207.2818,-406.7641C231.2434,-394.2702 270.0761,-372.5908 279,-359 308.511,-314.0555 311.1349,-249.3724 309.5942,-211.1688"/>
<polygon fill="#fcfcfc" stroke="#fcfcfc" stroke-width="2" points="313.087,-210.937 309.0681,-201.134 306.0966,-211.3036 313.087,-210.937"/>
</g>
<!-- 34 -->
<g id="node35" class="node">
<title>34</title>
<ellipse fill="#edad56" stroke="#edad56" stroke-width="3" cx="188" cy="-337.5" rx="21.5" ry="21.5"/>
</g>
<!-- 33&#45;&gt;34 -->
<g id="edge29" class="edge">
<title>33&#45;&gt;34</title>
<path fill="none" stroke="#fcfcfc" stroke-width="2" d="M188,-394.9129C188,-386.9881 188,-377.8428 188,-369.2138"/>
<polygon fill="#fcfcfc" stroke="#fcfcfc" stroke-width="2" points="191.5001,-369.061 188,-359.061 184.5001,-369.061 191.5001,-369.061"/>
</g>
<!-- 4 -->
<g id="node36" class="node">
<title>4</title>
<ellipse fill="#edad56" stroke="#edad56" stroke-width="3" cx="670" cy="-337.5" rx="21.5" ry="21.5"/>
</g>
<!-- 42&#45;&gt;4 -->
<g id="edge30" class="edge">
<title>42&#45;&gt;4</title>
<path fill="none" stroke="#fcfcfc" stroke-width="2" d="M791.1956,-405.9111C770.7253,-394.3814 737.0288,-375.3942 708,-359 704.7041,-357.1386 701.248,-355.1853 697.8198,-353.2467"/>
<polygon fill="#fcfcfc" stroke="#fcfcfc" stroke-width="2" points="699.3661,-350.1003 688.9389,-348.2231 695.9196,-356.1931 699.3661,-350.1003"/>
</g>
<!-- 26&#45;&gt;4 -->
<g id="edge31" class="edge">
<title>26&#45;&gt;4</title>
<path fill="none" stroke="#fcfcfc" stroke-width="2" d="M853.9236,-403.1264C849.557,-400.1443 844.7488,-397.2143 840,-395 784.8876,-369.3017 764.23,-382.151 708,-359 704.4998,-357.5589 700.9192,-355.8619 697.4228,-354.0637"/>
<polygon fill="#fcfcfc" stroke="#fcfcfc" stroke-width="2" points="698.9304,-350.8991 688.477,-349.1736 695.5728,-357.0413 698.9304,-350.8991"/>
</g>
<!-- 3&#45;&gt;4 -->
<g id="edge32" class="edge">
<title>3&#45;&gt;4</title>
<path fill="none" stroke="#fcfcfc" stroke-width="2" d="M619.5728,-399.7461C628.3973,-388.8533 640.0581,-374.4596 649.9434,-362.2574"/>
<polygon fill="#fcfcfc" stroke="#fcfcfc" stroke-width="2" points="652.8715,-364.2031 656.4468,-354.2297 647.4324,-359.7967 652.8715,-364.2031"/>
</g>
<!-- 15 -->
<g id="node37" class="node">
<title>15</title>
<ellipse fill="#edad56" stroke="#edad56" stroke-width="3" cx="498" cy="-258.5" rx="21.5" ry="21.5"/>
</g>
<!-- 16&#45;&gt;15 -->
<g id="edge33" class="edge">
<title>16&#45;&gt;15</title>
<path fill="none" stroke="#fcfcfc" stroke-width="2" d="M463.3241,-396.8999C468.2423,-385.9461 474.0568,-371.9339 478,-359 484.9043,-336.3537 490.0351,-310.0932 493.3704,-290.0961"/>
<polygon fill="#fcfcfc" stroke="#fcfcfc" stroke-width="2" points="496.8653,-290.407 494.9946,-279.9786 489.9538,-289.2974 496.8653,-290.407"/>
</g>
<!-- 17&#45;&gt;19 -->
<g id="edge34" class="edge">
<title>17&#45;&gt;19</title>
<path fill="none" stroke="#fcfcfc" stroke-width="2" d="M463.928,-494.1453C477.9609,-479.2341 499.1349,-456.735 515.0833,-439.7884"/>
<polygon fill="#fcfcfc" stroke="#fcfcfc" stroke-width="2" points="517.6942,-442.1211 521.9988,-432.4401 512.5966,-437.3237 517.6942,-442.1211"/>
</g>
<!-- 18&#45;&gt;29 -->
<g id="edge35" class="edge">
<title>18&#45;&gt;29</title>
<path fill="none" stroke="#fcfcfc" stroke-width="2" d="M145.7338,-488.7257C139.3756,-451.7026 130.7759,-373.8668 157,-316 164.3425,-299.7978 178.579,-285.9595 191.4527,-275.9212"/>
<polygon fill="#fcfcfc" stroke="#fcfcfc" stroke-width="2" points="193.6618,-278.6409 199.6296,-269.8867 189.5052,-273.0086 193.6618,-278.6409"/>
</g>
<!-- 11&#45;&gt;4 -->
<g id="edge36" class="edge">
<title>11&#45;&gt;4</title>
<path fill="none" stroke="#fcfcfc" stroke-width="2" d="M369.5632,-409.8195C384.3186,-405.1997 404.7379,-399.1596 423,-395 517.8938,-373.3858 548.8281,-395.6201 639,-359 640.8205,-358.2607 642.64,-357.3994 644.4338,-356.4548"/>
<polygon fill="#fcfcfc" stroke="#fcfcfc" stroke-width="2" points="646.3363,-359.3945 653.0737,-351.2178 642.7078,-353.4083 646.3363,-359.3945"/>
</g>
<!-- 14&#45;&gt;15 -->
<g id="edge37" class="edge">
<title>14&#45;&gt;15</title>
<path fill="none" stroke="#fcfcfc" stroke-width="2" d="M459.5967,-319.1772C465.9704,-309.1067 473.9944,-296.4288 481.0576,-285.269"/>
<polygon fill="#fcfcfc" stroke="#fcfcfc" stroke-width="2" points="484.0756,-287.045 486.4662,-276.7234 478.1608,-283.3014 484.0756,-287.045"/>
</g>
<!-- 13&#45;&gt;19 -->
<g id="edge42" class="edge">
<title>13&#45;&gt;19</title>
<path fill="none" stroke="#fcfcfc" stroke-width="2" d="M368.2504,-499.759C382.0449,-492.4648 401.0961,-482.492 418,-474 448.6347,-458.61 484.0464,-441.5976 508.2234,-430.0991"/>
<polygon fill="#fcfcfc" stroke="#fcfcfc" stroke-width="2" points="510.0019,-433.1293 517.5349,-425.6791 507.0001,-426.8055 510.0019,-433.1293"/>
</g>
<!-- 12&#45;&gt;29 -->
<g id="edge43" class="edge">
<title>12&#45;&gt;29</title>
<path fill="none" stroke="#fcfcfc" stroke-width="2" d="M60.7138,-397.7632C73.693,-376.2034 97.1812,-340.6133 124,-316 143.501,-298.1027 169.3805,-282.7552 189.0474,-272.4292"/>
<polygon fill="#fcfcfc" stroke="#fcfcfc" stroke-width="2" points="190.8388,-275.4443 198.1479,-267.7743 187.6511,-269.2122 190.8388,-275.4443"/>
</g>
<!-- 32&#45;&gt;23 -->
<g id="edge47" class="edge">
<title>32&#45;&gt;23</title>
<path fill="none" stroke="#fcfcfc" stroke-width="2" d="M453.9918,-245.2678C458.1264,-242.3482 462.6217,-239.4106 467,-237 503.8901,-216.6891 549.4666,-199.5071 578.8733,-189.353"/>
<polygon fill="#fcfcfc" stroke="#fcfcfc" stroke-width="2" points="580.218,-192.5927 588.5598,-186.0609 577.9654,-185.965 580.218,-192.5927"/>
</g>
<!-- 34&#45;&gt;29 -->
<g id="edge48" class="edge">
<title>34&#45;&gt;29</title>
<path fill="none" stroke="#fcfcfc" stroke-width="2" d="M195.7257,-317.1555C199.0501,-308.4014 203.0034,-297.9911 206.6502,-288.3878"/>
<polygon fill="#fcfcfc" stroke="#fcfcfc" stroke-width="2" points="210.0223,-289.3667 210.3004,-278.7755 203.4782,-286.8816 210.0223,-289.3667"/>
</g>
<!-- 5 -->
<g id="node43" class="node">
<title>5</title>
<ellipse fill="#edad56" stroke="#edad56" stroke-width="3" cx="670" cy="-258.5" rx="21.5" ry="21.5"/>
</g>
<!-- 4&#45;&gt;5 -->
<g id="edge53" class="edge">
<title>4&#45;&gt;5</title>
<path fill="none" stroke="#fcfcfc" stroke-width="2" d="M670,-315.9129C670,-307.9881 670,-298.8428 670,-290.2138"/>
<polygon fill="#fcfcfc" stroke="#fcfcfc" stroke-width="2" points="673.5001,-290.061 670,-280.061 666.5001,-290.061 673.5001,-290.061"/>
</g>
<!-- 15&#45;&gt;T1 -->
<g id="edge64" class="edge">
<title>15&#45;&gt;T1</title>
<path fill="none" stroke="#fcfcfc" stroke-width="2" d="M488.1904,-239.1261C474.0489,-211.1965 447.871,-159.4952 431.7898,-127.7349"/>
<polygon fill="#fcfcfc" stroke="#fcfcfc" stroke-width="2" points="434.7876,-125.9074 427.1478,-118.5669 428.5425,-129.0695 434.7876,-125.9074"/>
</g>
<!-- 29&#45;&gt;T30 -->
<g id="edge67" class="edge">
<title>29&#45;&gt;T30</title>
<path fill="none" stroke="#fcfcfc" stroke-width="2" d="M234.324,-244.0102C247.9988,-231.8719 267.704,-214.3808 283.1469,-200.673"/>
<polygon fill="#fcfcfc" stroke="#fcfcfc" stroke-width="2" points="285.6242,-203.154 290.7795,-193.898 280.9773,-197.9188 285.6242,-203.154"/>
</g>
<!-- 37 -->
<g id="node39" class="node">
<title>37</title>
<ellipse fill="#edad56" stroke="#edad56" stroke-width="3" cx="702" cy="-603.5152" rx="21.5" ry="21.5"/>
</g>
<!-- 37&#45;&gt;40 -->
<g id="edge38" class="edge">
<title>37&#45;&gt;40</title>
<path fill="none" stroke="#fcfcfc" stroke-width="2" d="M686.2188,-588.9046C672.6511,-576.3434 652.603,-557.7826 635.3603,-541.8189"/>
<polygon fill="#fcfcfc" stroke="#fcfcfc" stroke-width="2" points="637.3845,-538.9233 627.6687,-534.6979 632.6289,-544.0599 637.3845,-538.9233"/>
</g>
<!-- 39 -->
<g id="node40" class="node">
<title>39</title>
<ellipse fill="#edad56" stroke="#edad56" stroke-width="3" cx="739" cy="-337.5" rx="21.5" ry="21.5"/>
</g>
<!-- 37&#45;&gt;39 -->
<g id="edge39" class="edge">
<title>37&#45;&gt;39</title>
<path fill="none" stroke="#fcfcfc" stroke-width="2" d="M710.3596,-583.594C714.6695,-572.6627 719.6996,-558.7734 723,-546.0152 735.1709,-498.9662 736.2107,-486.4497 740,-438 741.4902,-418.9471 740.1662,-414.1104 740,-395 739.9274,-386.6464 739.7954,-377.6109 739.6506,-369.2316"/>
<polygon fill="#fcfcfc" stroke="#fcfcfc" stroke-width="2" points="743.1471,-369.0036 739.4639,-359.0696 736.1483,-369.1323 743.1471,-369.0036"/>
</g>
<!-- 41 -->
<g id="node41" class="node">
<title>41</title>
<ellipse fill="#edad56" stroke="#edad56" stroke-width="3" cx="710" cy="-416.5" rx="21.5" ry="21.5"/>
</g>
<!-- 37&#45;&gt;41 -->
<g id="edge40" class="edge">
<title>37&#45;&gt;41</title>
<path fill="none" stroke="#fcfcfc" stroke-width="2" d="M704.2006,-581.9675C705.2187,-571.1831 706.3451,-557.9214 707,-546.0152 708.8348,-512.6581 709.5504,-474.4083 709.8278,-448.1732"/>
<polygon fill="#fcfcfc" stroke="#fcfcfc" stroke-width="2" points="713.3286,-448.089 709.9194,-438.0577 706.3289,-448.0256 713.3286,-448.089"/>
</g>
<!-- 37&#45;&gt;38 -->
<g id="edge41" class="edge">
<title>37&#45;&gt;38</title>
<path fill="none" stroke="#fcfcfc" stroke-width="2" d="M696.3271,-582.2969C693.0438,-570.0164 688.854,-554.3453 685.2153,-540.7354"/>
<polygon fill="#fcfcfc" stroke="#fcfcfc" stroke-width="2" points="688.5285,-539.5765 682.5643,-530.8198 681.766,-541.3846 688.5285,-539.5765"/>
</g>
<!-- 39&#45;&gt;15 -->
<g id="edge49" class="edge">
<title>39&#45;&gt;15</title>
<path fill="none" stroke="#fcfcfc" stroke-width="2" d="M720.3828,-326.1142C714.0635,-322.5557 706.8633,-318.8258 700,-316 684.0373,-309.4278 581.152,-281.1137 528.6806,-266.8212"/>
<polygon fill="#fcfcfc" stroke="#fcfcfc" stroke-width="2" points="529.4673,-263.408 518.8992,-264.1602 527.6297,-270.1626 529.4673,-263.408"/>
</g>
<!-- 41&#45;&gt;29 -->
<g id="edge50" class="edge">
<title>41&#45;&gt;29</title>
<path fill="none" stroke="#fcfcfc" stroke-width="2" d="M689.4826,-409.6094C674.7488,-404.8906 654.3365,-398.8185 636,-395 513.1664,-369.4202 472.5809,-405.3823 356,-359 310.5781,-340.9287 266.4011,-304.4255 240.7197,-280.7427"/>
<polygon fill="#fcfcfc" stroke="#fcfcfc" stroke-width="2" points="243.0498,-278.1295 233.3625,-273.8391 238.2599,-283.2341 243.0498,-278.1295"/>
</g>
<!-- 38&#45;&gt;4 -->
<g id="edge51" class="edge">
<title>38&#45;&gt;4</title>
<path fill="none" stroke="#fcfcfc" stroke-width="2" d="M676.1276,-488.5082C674.9086,-458.4684 672.6876,-403.7342 671.2808,-369.0646"/>
<polygon fill="#fcfcfc" stroke="#fcfcfc" stroke-width="2" points="674.775,-368.8486 670.8724,-358.9987 667.7808,-369.1324 674.775,-368.8486"/>
</g>
<!-- 5&#45;&gt;23 -->
<g id="edge57" class="edge">
<title>5&#45;&gt;23</title>
<path fill="none" stroke="#fcfcfc" stroke-width="2" d="M656.7639,-241.3582C647.4257,-229.2644 634.8681,-213.0013 624.9726,-200.1858"/>
<polygon fill="#fcfcfc" stroke="#fcfcfc" stroke-width="2" points="627.5013,-197.7339 618.6194,-191.9579 621.9607,-202.012 627.5013,-197.7339"/>
</g>
<!-- 6 -->
<g id="node46" class="node">
<title>6</title>
<ellipse fill="#edad56" stroke="#edad56" stroke-width="3" cx="913" cy="-179.5" rx="21.5" ry="21.5"/>
</g>
<!-- 5&#45;&gt;6 -->
<g id="edge58" class="edge">
<title>5&#45;&gt;6</title>
<path fill="none" stroke="#fcfcfc" stroke-width="2" d="M690.718,-251.7645C733.6686,-237.8012 832.5794,-205.645 882.7036,-189.3494"/>
<polygon fill="#fcfcfc" stroke="#fcfcfc" stroke-width="2" points="883.9065,-192.6388 892.3344,-186.2184 881.7422,-185.9817 883.9065,-192.6388"/>
</g>
<!-- T35 -->
<g id="node47" class="node">
<title>T35</title>
<ellipse fill="#edad56" stroke="#edad56" stroke-width="3" cx="670" cy="-179.5" rx="21.5" ry="21.5"/>
</g>
<!-- 5&#45;&gt;T35 -->
<g id="edge59" class="edge">
<title>5&#45;&gt;T35</title>
<path fill="none" stroke="#fcfcfc" stroke-width="2" d="M670,-236.9129C670,-228.9881 670,-219.8428 670,-211.2138"/>
<polygon fill="#fcfcfc" stroke="#fcfcfc" stroke-width="2" points="673.5001,-211.061 670,-201.061 666.5001,-211.061 673.5001,-211.061"/>
</g>
<!-- 22 -->
<g id="node48" class="node">
<title>22</title>
<ellipse fill="#edad56" stroke="#edad56" stroke-width="3" cx="609" cy="-258.5" rx="21.5" ry="21.5"/>
</g>
<!-- 21&#45;&gt;22 -->
<g id="edge60" class="edge">
<title>21&#45;&gt;22</title>
<path fill="none" stroke="#fcfcfc" stroke-width="2" d="M609,-315.9129C609,-307.9881 609,-298.8428 609,-290.2138"/>
<polygon fill="#fcfcfc" stroke="#fcfcfc" stroke-width="2" points="612.5001,-290.061 609,-280.061 605.5001,-290.061 612.5001,-290.061"/>
</g>
<!-- 20&#45;&gt;15 -->
<g id="edge61" class="edge">
<title>20&#45;&gt;15</title>
<path fill="none" stroke="#fcfcfc" stroke-width="2" d="M536.4033,-319.1772C530.0296,-309.1067 522.0056,-296.4288 514.9424,-285.269"/>
<polygon fill="#fcfcfc" stroke="#fcfcfc" stroke-width="2" points="517.8392,-283.3014 509.5338,-276.7234 511.9244,-287.045 517.8392,-283.3014"/>
</g>
<!-- 7 -->
<g id="node49" class="node">
<title>7</title>
<ellipse fill="#edad56" stroke="#edad56" stroke-width="3" cx="913" cy="-100.5" rx="21.5" ry="21.5"/>
</g>
<!-- 6&#45;&gt;7 -->
<g id="edge63" class="edge">
<title>6&#45;&gt;7</title>
<path fill="none" stroke="#fcfcfc" stroke-width="2" d="M913,-157.9129C913,-149.9881 913,-140.8428 913,-132.2138"/>
<polygon fill="#fcfcfc" stroke="#fcfcfc" stroke-width="2" points="916.5001,-132.061 913,-122.061 909.5001,-132.061 916.5001,-132.061"/>
</g>
<!-- 22&#45;&gt;23 -->
<g id="edge66" class="edge">
<title>22&#45;&gt;23</title>
<path fill="none" stroke="#fcfcfc" stroke-width="2" d="M609,-236.9129C609,-227.9509 609,-217.4281 609,-207.8562"/>
<polygon fill="#fcfcfc" stroke="#fcfcfc" stroke-width="2" points="612.5001,-207.587 609,-197.587 605.5001,-207.5871 612.5001,-207.587"/>
</g>
<!-- 22&#45;&gt;T35 -->
<g id="edge65" class="edge">
<title>22&#45;&gt;T35</title>
<path fill="none" stroke="#fcfcfc" stroke-width="2" d="M622.2361,-241.3582C630.4694,-230.6953 641.2054,-216.7913 650.413,-204.8668"/>
<polygon fill="#fcfcfc" stroke="#fcfcfc" stroke-width="2" points="653.4484,-206.6625 656.7897,-196.6084 647.9078,-202.3844 653.4484,-206.6625"/>
</g>
<!-- T8 -->
<g id="node50" class="node">
<title>T8</title>
<ellipse fill="#edad56" stroke="#edad56" stroke-width="3" cx="913" cy="-21.5" rx="21.5" ry="21.5"/>
</g>
<!-- 7&#45;&gt;T8 -->
<g id="edge68" class="edge">
<title>7&#45;&gt;T8</title>
<path fill="none" stroke="#fcfcfc" stroke-width="2" d="M913,-78.9129C913,-70.9881 913,-61.8428 913,-53.2138"/>
<polygon fill="#fcfcfc" stroke="#fcfcfc" stroke-width="2" points="916.5001,-53.061 913,-43.061 909.5001,-53.061 916.5001,-53.061"/>
</g>
</g>
</svg>
